<?xml version="1.0" encoding="UTF-8"?>
<!DOCTYPE svg PUBLIC "-//W3C//DTD SVG 1.1//EN" "http://www.w3.org/Graphics/SVG/1.1/DTD/svg11.dtd">
<svg version="1.1" xmlns="http://www.w3.org/2000/svg" xmlns:xlink="http://www.w3.org/1999/xlink" x="0" y="0" width="174" height="170" viewBox="0, 0, 174, 170">
  <g id="Layer_1" transform="translate(-171, -105)">
    <g>
      <g>
        <path d="M258.5,274.5 C211.004,274.5 172.5,236.892 172.5,190.5 C172.5,144.108 211.004,106.5 258.5,106.5 C305.996,106.5 344.5,144.108 344.5,190.5 C344.5,236.892 305.996,274.5 258.5,274.5 z" fill="#FFFFFF"/>
        <path d="M258.5,274.5 C211.004,274.5 172.5,236.892 172.5,190.5 C172.5,144.108 211.004,106.5 258.5,106.5 C305.996,106.5 344.5,144.108 344.5,190.5 C344.5,236.892 305.996,274.5 258.5,274.5 z" fill-opacity="0" stroke="#000000" stroke-width="1"/>
      </g>
      <g>
        <g>
          <g>
            <path d="M258.5,116.34 C263.228,116.34 267.061,120.66 267.061,125.99 L267.061,227.054 C275.587,228.424 288.291,233.917 288.75,245.453 C288.75,256.061 275.207,264.66 258.5,264.66 C241.793,264.66 228.25,256.061 228.25,245.453 C228.876,234.083 241.267,228.176 249.939,227.054 L249.939,125.99 C249.939,120.66 253.772,116.34 258.5,116.34 L258.5,116.34 z M254.046,219.124 C253.095,219.124 252.323,219.994 252.323,221.066 C252.323,221.596 252.32,222.022 252.312,222.98 C252.308,223.54 252.306,223.789 252.304,224.101 C252.303,225.969 252.296,225.106 252.32,226.691 C251.306,227.599 250.104,228.213 248.941,228.837 C247.908,229.38 243.46,231.561 242.435,232.087 C237.156,234.799 233.843,237.126 231.846,240.061 C229.064,244.151 229.516,248.839 233.493,253.708 C236.133,256.941 240.199,259.055 246.024,260.804 C248.067,261.417 254.827,263.123 254.37,263.001 C254.494,263.034 254.614,263.066 254.731,263.098 C255.655,263.352 256.587,262.712 256.812,261.67 C257.037,260.628 256.47,259.577 255.545,259.324 C255.422,259.29 255.297,259.256 255.167,259.221 C255.565,259.328 248.874,257.64 246.911,257.05 C241.67,255.477 238.11,253.626 236.028,251.077 C233.129,247.527 232.878,244.928 234.581,242.425 C236.125,240.155 239.08,238.079 243.864,235.622 C244.847,235.117 249.314,232.927 250.397,232.358 C252.788,231.102 254.264,230.117 255.183,229.01 C255.557,228.559 255.841,228.08 256.02,227.554 C256.144,226.907 256.256,226.213 255.751,225.669 C255.742,225.088 255.75,225.602 255.75,224.126 C255.752,223.819 255.754,223.573 255.758,223.017 C255.767,222.046 255.769,221.612 255.769,221.066 C255.769,219.994 254.998,219.124 254.046,219.124 z" fill="#99E6FF"/>
            <path d="M258.5,116.34 C263.228,116.34 267.061,120.66 267.061,125.99 L267.061,227.054 C275.587,228.424 288.291,233.917 288.75,245.453 C288.75,256.061 275.207,264.66 258.5,264.66 C241.793,264.66 228.25,256.061 228.25,245.453 C228.876,234.083 241.267,228.176 249.939,227.054 L249.939,125.99 C249.939,120.66 253.772,116.34 258.5,116.34 L258.5,116.34 z M254.046,219.124 C253.095,219.124 252.323,219.994 252.323,221.066 C252.323,221.596 252.32,222.022 252.312,222.98 C252.308,223.54 252.306,223.789 252.304,224.101 C252.303,225.969 252.296,225.106 252.32,226.691 C251.306,227.599 250.104,228.213 248.941,228.837 C247.908,229.38 243.46,231.561 242.435,232.087 C237.156,234.799 233.843,237.126 231.846,240.061 C229.064,244.151 229.516,248.839 233.493,253.708 C236.133,256.941 240.199,259.055 246.024,260.804 C248.067,261.417 254.827,263.123 254.37,263.001 C254.494,263.034 254.614,263.066 254.731,263.098 C255.655,263.352 256.587,262.712 256.812,261.67 C257.037,260.628 256.47,259.577 255.545,259.324 C255.422,259.29 255.297,259.256 255.167,259.221 C255.565,259.328 248.874,257.64 246.911,257.05 C241.67,255.477 238.11,253.626 236.028,251.077 C233.129,247.527 232.878,244.928 234.581,242.425 C236.125,240.155 239.08,238.079 243.864,235.622 C244.847,235.117 249.314,232.927 250.397,232.358 C252.788,231.102 254.264,230.117 255.183,229.01 C255.557,228.559 255.841,228.08 256.02,227.554 C256.144,226.907 256.256,226.213 255.751,225.669 C255.742,225.088 255.75,225.602 255.75,224.126 C255.752,223.819 255.754,223.573 255.758,223.017 C255.767,222.046 255.769,221.612 255.769,221.066 C255.769,219.994 254.998,219.124 254.046,219.124 z" fill-opacity="0" stroke="#000000" stroke-width="1"/>
          </g>
          <path d="M266.639,140.388 L260.201,140.429" fill-opacity="0" stroke="#FF3A1E" stroke-width="1"/>
          <path d="M266.639,146.588 L260.201,146.629" fill-opacity="0" stroke="#FF3A1E" stroke-width="1"/>
          <path d="M266.639,152.671 L260.201,152.712" fill-opacity="0" stroke="#FF3A1E" stroke-width="1"/>
          <path d="M266.639,160.238 L260.201,160.279" fill-opacity="0" stroke="#FF3A1E" stroke-width="1"/>
          <path d="M266.639,168.969 L260.201,169.01" fill-opacity="0" stroke="#FF3A1E" stroke-width="1"/>
          <path d="M266.639,175.72 L260.201,175.761" fill-opacity="0" stroke="#FF3A1E" stroke-width="1"/>
          <path d="M266.639,183.275 L260.201,183.316" fill-opacity="0" stroke="#FF3A1E" stroke-width="1"/>
          <path d="M266.639,191.696 L260.201,191.737" fill-opacity="0" stroke="#FF3A1E" stroke-width="1"/>
          <path d="M266.639,200.604 L260.201,200.645" fill-opacity="0" stroke="#FF3A1E" stroke-width="1"/>
          <g>
            <path d="M255.759,222.951 L255.759,225.126 L255.75,225.259 L255.75,224.126 C255.752,223.819 255.754,223.573 255.758,223.017 L255.759,222.951 z" fill="#FFFFFF"/>
            <path d="M255.759,222.951 L255.759,225.126 L255.75,225.259 L255.75,224.126 C255.752,223.819 255.754,223.573 255.758,223.017 L255.759,222.951 z" fill-opacity="0" stroke="#000000" stroke-width="1"/>
          </g>
          <g>
            <path d="M254.044,132.186 C254.991,132.186 255.759,133.051 255.759,134.119 L255.759,220.949 C255.704,219.861 254.946,219.226 254.046,219.124 C253.077,219.167 252.423,219.945 252.328,221.007 L252.328,134.119 C252.329,133.051 253.096,132.186 254.044,132.186 z" fill="#FFFFFF"/>
            <path d="M254.044,132.186 C254.991,132.186 255.759,133.051 255.759,134.119 L255.759,220.949 C255.704,219.861 254.946,219.226 254.046,219.124 C253.077,219.167 252.423,219.945 252.328,221.007 L252.328,134.119 C252.329,133.051 253.096,132.186 254.044,132.186 z" fill-opacity="0" stroke="#000000" stroke-width="1"/>
          </g>
        </g>
        <g>
          <path d="M253.581,216.993 C253.218,222.57 255.428,220.384 253.148,219.319" fill="#FFFFFF"/>
          <path d="M253.081,216.992 L253.065,217.248 L253.046,217.726 L253.039,218.162 L253.045,218.556 L253.061,218.911 L253.086,219.227 L253.119,219.507 L253.159,219.753 L253.229,220.058 L253.333,220.36 L253.442,220.553 L253.551,220.655 L253.925,220.732 L254.67,220.593 L254.694,220.456 L254.663,220.282 L254.571,220.077 L254.409,219.852 L254.165,219.62 L253.827,219.393 L253.613,219.283 L253.613,219.283 C253.513,219.231 253.223,219.206 252.966,219.226 C252.708,219.246 252.581,219.304 252.682,219.355 C252.682,219.355 252.682,219.355 252.682,219.355 L252.869,219.451 L253.187,219.661 L253.42,219.881 L253.575,220.095 L253.663,220.289 L253.694,220.451 L253.684,220.559 L254.319,220.548 L254.527,220.612 L254.436,220.531 L254.331,220.346 L254.228,220.049 L254.158,219.746 L254.119,219.503 L254.086,219.224 L254.061,218.909 L254.045,218.556 L254.039,218.163 L254.046,217.728 L254.065,217.25 L254.081,216.995 C254.084,216.939 253.862,216.894 253.586,216.893 C253.31,216.893 253.084,216.937 253.081,216.992 L253.081,216.992" fill="#FFFFFF"/>
        </g>
        <g>
          <path d="M254.141,218.716 C254.439,221.331 254.629,220.443 254.65,218.601" fill="#FFFFFF"/>
          <path d="M253.641,218.718 L253.669,218.953 L253.722,219.364 L253.773,219.698 L253.821,219.96 L253.866,220.153 L253.909,220.281 L253.95,220.352 L254.128,220.417 L255.011,220.314 L255.044,220.209 L255.071,220.063 L255.094,219.875 L255.121,219.521 L255.144,218.936 L255.15,218.602 L255.15,218.602 C255.151,218.546 254.928,218.501 254.652,218.501 C254.376,218.501 254.151,218.546 254.15,218.601 C254.15,218.601 254.15,218.601 254.15,218.601 L254.144,218.934 L254.121,219.518 L254.094,219.87 L254.072,220.055 L254.046,220.197 L254.021,220.286 L254.838,220.276 L254.943,220.328 L254.907,220.268 L254.865,220.143 L254.82,219.952 L254.772,219.692 L254.722,219.359 L254.668,218.949 L254.641,218.714 C254.641,218.714 254.641,218.714 254.641,218.714 C254.634,218.658 254.405,218.615 254.129,218.616 C253.853,218.617 253.635,218.663 253.641,218.718 L253.641,218.718" fill="#FFFFFF"/>
        </g>
        <g>
          <path d="M253.708,220.64 C253.111,217.961 253.054,222.049 253.631,218.917" fill="#FFFFFF"/>
          <path d="M254.207,220.635 L254.18,220.514 L254.127,220.301 L254.053,220.047 L253.967,219.819 L253.891,219.695 L253.804,219.64 L252.806,219.681 L252.744,219.831 L252.728,220.001 L252.736,220.099 L252.758,220.163 L253.164,220.254 L253.838,220.095 L253.906,219.917 L253.964,219.709 L254.007,219.53 L254.054,219.316 L254.104,219.063 L254.131,218.921 L254.131,218.921 C254.142,218.866 253.926,218.819 253.65,218.817 C253.374,218.815 253.142,218.858 253.132,218.913 L253.105,219.055 L253.055,219.307 L253.008,219.521 L252.965,219.698 L252.908,219.902 L252.847,220.069 L253.421,220.061 L253.756,220.148 L253.735,220.095 L253.728,220.004 L253.741,219.845 L253.769,219.735 L252.865,219.709 L252.898,219.719 L252.969,219.834 L253.055,220.059 L253.128,220.311 L253.181,220.524 L253.208,220.644 C253.208,220.644 253.208,220.644 253.208,220.644 C253.221,220.699 253.455,220.742 253.731,220.74 C254.007,220.737 254.22,220.69 254.207,220.635 L254.207,220.635" fill="#FFFFFF"/>
        </g>
        <g>
          <path d="M253.453,218.659 C253.45,219.036 253.419,219.403 253.402,219.778" fill="#FFFFFF"/>
          <path d="M252.953,218.658 L252.946,218.939 L252.917,219.497 L252.902,219.777 L252.902,219.777 C252.899,219.833 253.121,219.878 253.397,219.878 C253.673,219.879 253.899,219.835 253.902,219.779 L253.917,219.499 L253.946,218.94 L253.953,218.659 C253.953,218.659 253.953,218.659 253.953,218.659 C253.954,218.604 253.732,218.559 253.456,218.559 C253.179,218.558 252.954,218.603 252.953,218.658 L252.953,218.658" fill="#FFFFFF"/>
        </g>
        <g>
          <path d="M254.931,220.812 C254.95,220.185 255.049,219.568 255.109,218.946" fill="#FFFFFF"/>
          <path d="M255.431,220.813 L255.458,220.345 L255.558,219.414 L255.609,218.948 L255.609,218.948 C255.615,218.893 255.396,218.847 255.12,218.846 C254.844,218.845 254.615,218.888 254.609,218.944 L254.559,219.41 L254.458,220.342 L254.431,220.811 C254.431,220.811 254.431,220.811 254.431,220.811 C254.427,220.866 254.649,220.911 254.925,220.912 C255.201,220.913 255.427,220.868 255.431,220.813 L255.431,220.813" fill="#FFFFFF"/>
        </g>
        <g>
          <path d="M253.988,221.616 C253.186,216.198 253.099,223.308 253.249,218.888" fill="#FFFFFF"/>
          <path d="M254.488,221.613 L254.451,221.368 L254.38,220.931 L254.313,220.56 L254.249,220.252 L254.19,220.002 L254.135,219.805 L254.083,219.657 L254.034,219.552 L253.964,219.466 L253.113,219.41 L252.836,219.591 L252.783,219.772 L252.744,219.978 L252.716,220.177 L252.698,220.334 L252.689,220.415 L253.689,220.405 L253.691,220.357 L253.695,220.269 L253.701,220.137 L253.709,219.957 L253.719,219.725 L253.73,219.437 L253.742,219.088 L253.749,218.889 L253.749,218.889 C253.751,218.834 253.529,218.789 253.253,218.788 C252.977,218.788 252.751,218.832 252.749,218.888 L252.743,219.086 L252.73,219.436 L252.719,219.724 L252.709,219.955 L252.701,220.135 L252.695,220.267 L252.691,220.355 L252.689,220.407 L253.689,220.419 L253.698,220.338 L253.715,220.182 L253.743,219.985 L253.781,219.783 L253.829,219.614 L253.677,219.575 L252.977,219.499 L253.038,219.571 L253.085,219.671 L253.136,219.816 L253.191,220.011 L253.25,220.26 L253.313,220.568 L253.38,220.937 L253.451,221.374 L253.488,221.619 C253.497,221.674 253.727,221.718 254.003,221.716 C254.279,221.714 254.496,221.668 254.488,221.613 L254.488,221.613" fill="#FFFFFF"/>
        </g>
      </g>
    </g>
  </g>
</svg>
